<?xml version="1.0" encoding="UTF-8"?>
<!DOCTYPE svg PUBLIC "-//W3C//DTD SVG 1.1//EN" "http://www.w3.org/Graphics/SVG/1.1/DTD/svg11.dtd">
<!-- Creator: CorelDRAW -->
<svg xmlns="http://www.w3.org/2000/svg" xml:space="preserve" width="20mm" height="15.8mm" version="1.1" style="shape-rendering:geometricPrecision; text-rendering:geometricPrecision; image-rendering:optimizeQuality; fill-rule:evenodd; clip-rule:evenodd"
viewBox="0 0 2000000 1580000"
 xmlns:xlink="http://www.w3.org/1999/xlink"
 xmlns:xodm="http://www.corel.com/coreldraw/odm/2003">
 <defs>
  <style type="text/css">
   <![CDATA[
    .fil0 {fill:black}
    .fil1 {fill:#61A169}
   ]]>
  </style>
 </defs>
 <g id="Layer_x0020_1">
  <metadata id="CorelCorpID_0Corel-Layer"/>
  <polygon class="fil0" points="2783280,5696380 -5402560,-4111650 "/>
  <polygon class="fil0" points="1943600,5695710 -5402560,-4111650 "/>
  <path class="fil1" d="M923040 1251920c150,64510 14770,124220 38350,180960 23960,67350 16230,111180 -260,123070 -7910,-4570 -14410,-9770 -18700,-15880l-18300 -30960 -47630 -87320c-21070,-27070 -33540,-53680 -61750,-80640 -24450,-23350 -23700,-27160 -31790,-32310 -2270,-1450 -4580,-2820 -6870,-4090 -23250,-12910 -47540,-17420 -63590,-19050 -59940,-6120 -124420,7530 -185320,5060 -36010,-1460 -73610,-6250 -100800,-12350 -16780,-3760 -36660,-9440 -61030,-16730 -44690,-13370 -83400,-43400 -122930,-71990 -73690,-53300 -131550,-124600 -163670,-204360 -8210,-20380 -16260,-40060 -21280,-60100 -52090,-207840 -22700,-383120 -22690,-366930 20,17190 12430,36190 23520,57840 8890,17360 14610,37000 27300,54350 19140,26160 40240,49740 56630,65270 20110,19060 41660,33880 65410,40700 50920,14630 94980,24150 144950,23480 92240,-1240 140390,9780 188510,19230 23310,4580 62470,19060 98120,38060 31140,16590 59850,35360 73820,49350 20180,20180 46970,43010 64470,62340 22540,24890 42280,51540 63390,77290 5830,-41670 23530,-78030 30340,-113890 6150,-32350 14930,-63590 23660,-96460 2380,-8930 4870,-17690 7410,-26290 17820,-60370 38630,-113720 69790,-165280 19720,-32630 46130,-68650 93130,-107090 20080,-16420 42460,-33160 66470,-48120 40900,-25480 86020,-47060 126450,-63620 99270,-40680 160050,-44210 252370,-61730 37790,-7170 83230,-15660 124000,-22670 16120,-2770 33400,-9230 52430,-13230 76800,-16140 163080,-66960 196590,-126710 13890,-24770 31120,-59110 39480,-90540l25890 -97230c26230,59040 20220,148080 5870,235420 -6910,42050 -15760,83730 -23890,121460 -7930,36820 -19790,74940 -30790,110870 -26730,87270 -55590,159650 -81510,243660 -12990,42090 -30150,83320 -47140,123390 -15370,36260 -34380,69810 -52350,102520 -22700,41320 -55800,73540 -89180,100620 -21910,17780 -60010,43920 -117110,65120 -108740,40370 -270190,69800 -406980,55530 -37450,-3900 -72600,-5350 -102840,-12330 -24100,-5560 -44950,-5230 -59300,-10250 -3490,10710 -10730,13720 -11690,37000l-8960 65560zm-706250 -331220c8710,5160 16610,12030 25720,17080 33190,18370 60000,29680 95800,40750 29260,9080 53040,16110 65960,18650 44350,8740 87170,19510 129130,29280 70370,16400 131520,48230 194850,81090 19170,9940 35720,23200 54090,32500 15070,7630 30610,13650 45210,20820 -10030,-3540 -20410,-6190 -30810,-8810 -16290,-4100 -32440,-12270 -43320,-18220 -15470,-8490 -31390,-14890 -46950,-22800 -21610,-11030 -51160,-22350 -73940,-30340 -33190,-11630 -61450,-21590 -86790,-28130l-94930 -24500 -81960 -19770 -72970 -23880 -28880 -14190c-23520,-11560 -44750,-25950 -64230,-41070 -11000,-8540 -17140,-15990 -22960,-22380 -9440,-10370 -16250,-19270 -26380,-32880 -16600,-22300 -12820,-19990 -21700,-34070 -11640,-18440 -20520,-38430 -29370,-56600 -19280,-39560 -31980,-72010 -30600,-69490l37520 68590c6160,11240 12850,21610 14810,24560 7310,10940 14770,23450 16550,26000 6300,9000 12650,19750 15610,23170 2910,3360 13290,18680 24570,31620 10820,12410 22310,22710 22840,23000l13130 10020zm910220 -42650l0 0c16710,-11460 31950,-21430 49650,-31950 30520,-16920 62980,-33320 97620,-48690 19910,-7600 43610,-16970 71900,-30320 100110,-43500 83210,-21280 206860,-102210 5320,-4060 10620,-8200 15830,-12400 26100,-21000 51540,-42850 75560,-66830 22970,-22940 44750,-47540 66400,-72490 43960,-51100 83050,-103570 120730,-157040l-217310 231830c-23630,21890 -59140,51770 -99980,74180l-62030 33760 -61650 29160c-8670,4090 -17340,7630 -25670,11330 -24680,10960 -48150,20920 -74180,32210 -32870,14260 -65940,28210 -98930,44550 -92790,50030 -185330,110240 -239080,204360l-23980 59970 88070 -100650c17480,-19980 105710,-95440 110190,-98770z"/>
 </g>
</svg>
