<svg class="animated" id="freepik_stories-responsive" xmlns="http://www.w3.org/2000/svg" viewBox="0 0 500 500" version="1.1" xmlns:xlink="http://www.w3.org/1999/xlink" xmlns:svgjs="http://svgjs.com/svgjs"><style>svg#freepik_stories-responsive:not(.animated) .animable {opacity: 0;}svg#freepik_stories-responsive.animated #freepik--Responsive--inject-2 {animation: 1.5s Infinite  linear floating;animation-delay: 0s;}            @keyframes floating {                0% {                    opacity: 1;                    transform: translateY(0px);                }                50% {                    transform: translateY(-10px);                }                100% {                    opacity: 1;                    transform: translateY(0px);                }            }        </style><g id="freepik--background-complete--inject-2" class="animable" style="transform-origin: 250px 226.87px;"><rect y="382.4" width="500" height="0.25" style="fill: rgb(235, 235, 235); transform-origin: 250px 382.525px;" id="elo1yrswbf1xp" class="animable"></rect><rect x="372.33" y="398.49" width="77.57" height="0.25" style="fill: rgb(235, 235, 235); transform-origin: 411.115px 398.615px;" id="el9okpmziuzlp" class="animable"></rect><rect x="278" y="394.99" width="55.33" height="0.25" style="fill: rgb(235, 235, 235); transform-origin: 305.665px 395.115px;" id="el4z2sx880xks" class="animable"></rect><rect x="356.76" y="389.21" width="59.02" height="0.25" style="fill: rgb(235, 235, 235); transform-origin: 386.27px 389.335px;" id="elkibaemnurv" class="animable"></rect><rect x="52.46" y="390.89" width="12.69" height="0.25" style="fill: rgb(235, 235, 235); transform-origin: 58.805px 391.015px;" id="elz3t0edy0qve" class="animable"></rect><rect x="74.06" y="390.89" width="71.61" height="0.25" style="fill: rgb(235, 235, 235); transform-origin: 109.865px 391.015px;" id="elsmjb3bkjja" class="animable"></rect><rect x="173.16" y="395.11" width="46.84" height="0.25" style="fill: rgb(235, 235, 235); transform-origin: 196.58px 395.235px;" id="ela6bejuhc6nn" class="animable"></rect><path d="M237,337.8H43.91a5.71,5.71,0,0,1-5.7-5.71V60.66A5.71,5.71,0,0,1,43.91,55H237a5.71,5.71,0,0,1,5.71,5.71V332.09A5.71,5.71,0,0,1,237,337.8ZM43.91,55.2a5.46,5.46,0,0,0-5.45,5.46V332.09a5.46,5.46,0,0,0,5.45,5.46H237a5.47,5.47,0,0,0,5.46-5.46V60.66A5.47,5.47,0,0,0,237,55.2Z" style="fill: rgb(235, 235, 235); transform-origin: 140.46px 196.4px;" id="elsxawd2ld4sq" class="animable"></path><path d="M453.31,337.8H260.21a5.72,5.72,0,0,1-5.71-5.71V60.66A5.72,5.72,0,0,1,260.21,55h193.1A5.71,5.71,0,0,1,459,60.66V332.09A5.71,5.71,0,0,1,453.31,337.8ZM260.21,55.2a5.47,5.47,0,0,0-5.46,5.46V332.09a5.47,5.47,0,0,0,5.46,5.46h193.1a5.47,5.47,0,0,0,5.46-5.46V60.66a5.47,5.47,0,0,0-5.46-5.46Z" style="fill: rgb(235, 235, 235); transform-origin: 356.75px 196.4px;" id="elizrla6xftdh" class="animable"></path><rect x="56.34" y="96.78" width="132.59" height="216.38" style="fill: rgb(230, 230, 230); transform-origin: 122.635px 204.97px;" id="elorurufg2rwq" class="animable"></rect><rect x="58.23" y="96.78" width="134.75" height="216.38" style="fill: rgb(240, 240, 240); transform-origin: 125.605px 204.97px;" id="elyq7d0e0a6w9" class="animable"></rect><rect x="56.34" y="313.16" width="132.59" height="6.13" style="fill: rgb(230, 230, 230); transform-origin: 122.635px 316.225px;" id="elua3lxzpfbx" class="animable"></rect><rect x="64.97" y="313.16" width="134.75" height="6.13" style="fill: rgb(240, 240, 240); transform-origin: 132.345px 316.225px;" id="el3t348933gpf" class="animable"></rect><g id="ellok88j76uc"><rect x="23.08" y="143.26" width="205.05" height="123.42" style="fill: rgb(250, 250, 250); transform-origin: 125.605px 204.97px; transform: rotate(90deg);" class="animable"></rect></g><polygon points="91.72 307.49 107.49 102.44 132.09 102.44 116.32 307.49 91.72 307.49" style="fill: rgb(255, 255, 255); transform-origin: 111.905px 204.965px;" id="el3wr4gptqfrj" class="animable"></polygon><path d="M66.52,301.85a.4.4,0,0,1-.41-.4V106.13a.41.41,0,1,1,.81,0V301.45A.4.4,0,0,1,66.52,301.85Z" style="fill: rgb(240, 240, 240); transform-origin: 66.515px 203.753px;" id="el2s8i15qqt3n" class="animable"></path><polygon points="121.61 307.49 137.37 102.44 146.96 102.44 131.2 307.49 121.61 307.49" style="fill: rgb(255, 255, 255); transform-origin: 134.285px 204.965px;" id="elim9pnu2grc" class="animable"></polygon><g id="elzpner5z60ve"><rect x="84.43" y="204.61" width="205.05" height="0.72" style="fill: rgb(230, 230, 230); transform-origin: 186.955px 204.97px; transform: rotate(90deg);" class="animable"></rect></g><g id="eljm40bzbgy7"><polygon points="194.32 110.98 61.73 110.98 61.2 104.64 193.8 104.64 194.32 110.98" style="fill: rgb(235, 235, 235); opacity: 0.6; transform-origin: 127.76px 107.81px;" class="animable"></polygon></g><g id="el7ji3ikd3hvb"><polygon points="194.32 121.38 61.73 121.38 61.2 115.04 193.8 115.04 194.32 121.38" style="fill: rgb(235, 235, 235); opacity: 0.6; transform-origin: 127.76px 118.21px;" class="animable"></polygon></g><g id="elydz2fu70u5k"><polygon points="194.32 131.77 61.73 131.77 61.2 125.43 193.8 125.43 194.32 131.77" style="fill: rgb(235, 235, 235); opacity: 0.6; transform-origin: 127.76px 128.6px;" class="animable"></polygon></g><g id="elrfwngbguq5"><polygon points="194.32 142.17 61.73 142.17 61.2 135.83 193.8 135.83 194.32 142.17" style="fill: rgb(235, 235, 235); opacity: 0.6; transform-origin: 127.76px 139px;" class="animable"></polygon></g><g id="elff2zun7j8l8"><polygon points="194.32 152.56 61.73 152.56 61.2 146.22 193.8 146.22 194.32 152.56" style="fill: rgb(235, 235, 235); opacity: 0.6; transform-origin: 127.76px 149.39px;" class="animable"></polygon></g><g id="elub0v2pjt9wb"><polygon points="194.32 162.96 61.73 162.96 61.2 156.62 193.8 156.62 194.32 162.96" style="fill: rgb(235, 235, 235); opacity: 0.6; transform-origin: 127.76px 159.79px;" class="animable"></polygon></g><rect x="273.75" y="96.78" width="127.06" height="285.62" style="fill: rgb(240, 240, 240); transform-origin: 337.28px 239.59px;" id="elsb198q7awhl" class="animable"></rect><rect x="276.44" y="96.78" width="124.38" height="285.62" style="fill: rgb(245, 245, 245); transform-origin: 338.63px 239.59px;" id="elw4uxt5id2fq" class="animable"></rect><g id="elllxcghdxk4"><rect x="202.3" y="184.98" width="272.66" height="109.22" style="fill: rgb(240, 240, 240); transform-origin: 338.63px 239.59px; transform: rotate(90deg);" class="animable"></rect></g><path d="M294.75,154h0a29.78,29.78,0,0,1,29.78-29.78h28.2A29.77,29.77,0,0,1,382.5,154H294.75Z" style="fill: rgb(250, 250, 250); transform-origin: 338.625px 139.11px;" id="el6jc72e656jf" class="animable"></path><g id="el20xqk50su17"><rect x="306.06" y="282.52" width="65.14" height="87.75" style="fill: rgb(245, 245, 245); transform-origin: 338.63px 326.395px; transform: rotate(90deg);" class="animable"></rect></g><g id="elu4zaqm0z82"><rect x="294.75" y="172.33" width="38.71" height="113.09" style="fill: rgb(245, 245, 245); transform-origin: 314.105px 228.875px; transform: rotate(180deg);" class="animable"></rect></g><g id="el39nbbwh6vv9"><rect x="343.8" y="172.33" width="38.71" height="113.09" style="fill: rgb(245, 245, 245); transform-origin: 363.155px 228.875px; transform: rotate(180deg);" class="animable"></rect></g><path d="M368.46,228.37h15.86a2.46,2.46,0,0,0,2.46-2.46h0a2.47,2.47,0,0,0-2.46-2.46H368.46a2.46,2.46,0,0,0-2.45,2.46h0A2.46,2.46,0,0,0,368.46,228.37Z" style="fill: rgb(224, 224, 224); transform-origin: 376.395px 225.91px;" id="el3pjvl66n7lj" class="animable"></path><g id="elas0ff3qh14j"><rect x="255.92" y="238.61" width="272.66" height="1.97" style="fill: rgb(240, 240, 240); transform-origin: 392.25px 239.595px; transform: rotate(90deg);" class="animable"></rect></g><polygon points="457.21 235.1 411.96 235.1 415.97 182.15 453.2 182.15 457.21 235.1" style="fill: rgb(235, 235, 235); transform-origin: 434.585px 208.625px;" id="ele2c3yrut8ja" class="animable"></polygon><polygon points="447.28 235.1 439.5 235.1 437.85 182.15 445.03 182.15 447.28 235.1" style="fill: rgb(245, 245, 245); transform-origin: 442.565px 208.625px;" id="elfgkw81qcjkr" class="animable"></polygon><rect x="432.32" y="235.1" width="4.53" height="147.3" style="fill: rgb(240, 240, 240); transform-origin: 434.585px 308.75px;" id="elhe6jzwnyy5t" class="animable"></rect><rect x="430.36" y="301.06" width="8.45" height="8.45" rx="2" style="fill: rgb(240, 240, 240); transform-origin: 434.585px 305.285px;" id="elpgufi8bxqx" class="animable"></rect><rect x="430.36" y="314.6" width="8.45" height="8.45" rx="2" style="fill: rgb(240, 240, 240); transform-origin: 434.585px 318.825px;" id="elioydc298pf" class="animable"></rect><path d="M441.75,382.4H427.42a3.06,3.06,0,0,1,3.05-3.06h8.22a3.06,3.06,0,0,1,3.06,3.06Z" style="fill: rgb(240, 240, 240); transform-origin: 434.585px 380.87px;" id="el02m29a99brql" class="animable"></path><rect x="432.32" y="235.1" width="4.53" height="2.77" style="fill: rgb(224, 224, 224); transform-origin: 434.585px 236.485px;" id="el4mv71inwggk" class="animable"></rect><polygon points="260.87 235.1 215.62 235.1 219.63 182.15 256.86 182.15 260.87 235.1" style="fill: rgb(235, 235, 235); transform-origin: 238.245px 208.625px;" id="elytl7kpyt1" class="animable"></polygon><polygon points="250.94 235.1 243.16 235.1 241.51 182.15 248.69 182.15 250.94 235.1" style="fill: rgb(245, 245, 245); transform-origin: 246.225px 208.625px;" id="elyshl0trjuu" class="animable"></polygon><rect x="235.98" y="235.1" width="4.53" height="147.3" style="fill: rgb(240, 240, 240); transform-origin: 238.245px 308.75px;" id="elpa0r55xuc8r" class="animable"></rect><rect x="234.02" y="301.06" width="8.45" height="8.45" rx="2" style="fill: rgb(240, 240, 240); transform-origin: 238.245px 305.285px;" id="elqa56syhvd5c" class="animable"></rect><rect x="234.02" y="314.6" width="8.45" height="8.45" rx="2" style="fill: rgb(240, 240, 240); transform-origin: 238.245px 318.825px;" id="elonnb89nmfcb" class="animable"></rect><path d="M245.41,382.4H231.08a3.06,3.06,0,0,1,3-3.06h8.23a3.06,3.06,0,0,1,3,3.06Z" style="fill: rgb(240, 240, 240); transform-origin: 238.245px 380.87px;" id="el48qn9uqogtf" class="animable"></path><rect x="235.98" y="235.1" width="4.53" height="2.77" style="fill: rgb(224, 224, 224); transform-origin: 238.245px 236.485px;" id="eljlmhodkb5jk" class="animable"></rect></g><g id="freepik--Shadow--inject-2" class="animable" style="transform-origin: 250px 416.24px;"><ellipse id="freepik--path--inject-2" cx="250" cy="416.24" rx="193.89" ry="11.32" style="fill: rgb(245, 245, 245); transform-origin: 250px 416.24px;" class="animable"></ellipse></g><g id="freepik--Responsive--inject-2" class="animable" style="transform-origin: 207.595px 189.405px;"><g id="elzh2lexakb7"><polygon points="286.61 103.8 284.73 161.54 330 158.41 286.61 103.8" style="fill: rgb(74, 139, 87); opacity: 0.1; transform-origin: 307.365px 132.67px;" class="animable"></polygon></g><g id="elle85ukcfgsc"><polygon points="254.5 281.43 255.67 238.72 86.09 241.02 254.5 281.43" style="fill: rgb(74, 139, 87); opacity: 0.1; transform-origin: 170.88px 260.075px;" class="animable"></polygon></g><path d="M83.3,108.95h205a0,0,0,0,1,0,0v129a3.14,3.14,0,0,1-3.14,3.14H86.44a3.14,3.14,0,0,1-3.14-3.14v-129a0,0,0,0,1,0,0Z" style="fill: rgb(74, 139, 87); transform-origin: 185.8px 175.02px;" id="el9dl3w182agq" class="animable"></path><g id="el5jbjy90g834"><path d="M83.3,108.95h205a0,0,0,0,1,0,0v129a3.14,3.14,0,0,1-3.14,3.14H86.44a3.14,3.14,0,0,1-3.14-3.14v-129a0,0,0,0,1,0,0Z" style="fill: rgb(255, 255, 255); opacity: 0.7; transform-origin: 185.8px 175.02px;" class="animable"></path></g><g id="eltchuunzrpsm"><rect x="101.07" y="117.57" width="169.43" height="51.69" rx="2.83" style="fill: rgb(255, 255, 255); opacity: 0.9; transform-origin: 185.785px 143.415px;" class="animable"></rect></g><g id="el3f3yqo6veun"><rect x="101.07" y="177.18" width="51.31" height="15.08" rx="2.83" style="fill: rgb(74, 139, 87); opacity: 0.7; transform-origin: 126.725px 184.72px;" class="animable"></rect></g><g id="elnt19tapb6de"><rect x="160.13" y="177.18" width="51.31" height="15.08" rx="2.83" style="fill: rgb(74, 139, 87); opacity: 0.7; transform-origin: 185.785px 184.72px;" class="animable"></rect></g><g id="elhstnb3zyxyu"><rect x="219.18" y="177.18" width="51.31" height="15.08" rx="2.83" style="fill: rgb(74, 139, 87); opacity: 0.7; transform-origin: 244.835px 184.72px;" class="animable"></rect></g><g id="ela3z5qx0dx7l"><path d="M103.9,198.36h45.65a2.83,2.83,0,0,1,2.83,2.83V241a0,0,0,0,1,0,0H101.07a0,0,0,0,1,0,0V201.19A2.83,2.83,0,0,1,103.9,198.36Z" style="fill: rgb(74, 139, 87); opacity: 0.3; transform-origin: 126.725px 219.68px;" class="animable"></path></g><g id="elxaup5wo6c1o"><path d="M163,198.36h45.65a2.83,2.83,0,0,1,2.83,2.83V241a0,0,0,0,1,0,0H160.13a0,0,0,0,1,0,0V201.19A2.83,2.83,0,0,1,163,198.36Z" style="fill: rgb(74, 139, 87); opacity: 0.3; transform-origin: 185.805px 219.68px;" class="animable"></path></g><g id="eluosasa2axw"><path d="M222,198.36h45.65a2.83,2.83,0,0,1,2.83,2.83V241a0,0,0,0,1,0,0H219.18a0,0,0,0,1,0,0V201.19A2.83,2.83,0,0,1,222,198.36Z" style="fill: rgb(74, 139, 87); opacity: 0.3; transform-origin: 244.83px 219.68px;" class="animable"></path></g><rect x="140.78" y="96.56" width="5" height="1" style="fill: rgb(74, 139, 87); transform-origin: 143.28px 97.06px;" id="elxyf3780m9fn" class="animable"></rect><rect x="124.11" y="96.56" width="12.25" height="1" style="fill: rgb(74, 139, 87); transform-origin: 130.235px 97.06px;" id="el828e9856y8i" class="animable"></rect><path d="M279.38,100.06H92.19A8.89,8.89,0,0,0,83.3,109h205A8.89,8.89,0,0,0,279.38,100.06Z" style="fill: rgb(74, 139, 87); transform-origin: 185.8px 104.53px;" id="elw0ccuhq8znh" class="animable"></path><path d="M95.89,104.5a1.78,1.78,0,1,1-1.77-1.77A1.78,1.78,0,0,1,95.89,104.5Z" style="fill: rgb(255, 255, 255); transform-origin: 94.11px 104.51px;" id="eld569yi4hdsu" class="animable"></path><path d="M101.61,104.41a1.77,1.77,0,1,1-1.77-1.77A1.78,1.78,0,0,1,101.61,104.41Z" style="fill: rgb(255, 255, 255); transform-origin: 99.84px 104.41px;" id="eltpbw5mn0b8" class="animable"></path><path d="M107.33,104.41a1.77,1.77,0,1,1-1.77-1.77A1.78,1.78,0,0,1,107.33,104.41Z" style="fill: rgb(255, 255, 255); transform-origin: 105.56px 104.41px;" id="elsp87r12q2ul" class="animable"></path><path d="M252.89,168.38h79a0,0,0,0,1,0,0V278.25a4,4,0,0,1-4,4H256.84a4,4,0,0,1-4-4V168.38A0,0,0,0,1,252.89,168.38Z" style="fill: rgb(74, 139, 87); transform-origin: 292.365px 225.315px;" id="els0eyec5ocdl" class="animable"></path><g id="el9dxk80xiw2t"><path d="M252.89,168.38h79a0,0,0,0,1,0,0V278.25a4,4,0,0,1-4,4H256.84a4,4,0,0,1-4-4V168.38A0,0,0,0,1,252.89,168.38Z" style="fill: rgb(255, 255, 255); opacity: 0.8; transform-origin: 292.365px 225.315px;" class="animable"></path></g><g id="eld4k4q0bhvjl"><rect x="260.09" y="174.32" width="64.57" height="24.76" rx="1.96" style="fill: rgb(255, 255, 255); opacity: 0.9; transform-origin: 292.375px 186.7px;" class="animable"></rect></g><g id="elbpmrz0cuips"><rect x="260.09" y="203.98" width="64.57" height="18.97" rx="3.56" style="fill: rgb(74, 139, 87); opacity: 0.7; transform-origin: 292.375px 213.465px;" class="animable"></rect></g><g id="elr4gwp0vtt2c"><rect x="260.09" y="229.23" width="64.57" height="18.97" rx="3.56" style="fill: rgb(74, 139, 87); opacity: 0.7; transform-origin: 292.375px 238.715px;" class="animable"></rect></g><g id="ele2v6w7d90wf"><rect x="260.09" y="254.48" width="64.57" height="18.97" rx="3.56" style="fill: rgb(74, 139, 87); opacity: 0.7; transform-origin: 292.375px 263.965px;" class="animable"></rect></g><path d="M258.08,157.2h68.58a5.2,5.2,0,0,1,5.2,5.2v6a0,0,0,0,1,0,0h-79a0,0,0,0,1,0,0v-6A5.2,5.2,0,0,1,258.08,157.2Z" style="fill: rgb(74, 139, 87); transform-origin: 292.36px 162.8px;" id="elwa2i2x5j77" class="animable"></path></g><g id="freepik--Character--inject-2" class="animable" style="transform-origin: 366.9px 266.895px;"><polygon points="363.12 410.23 355.8 410.23 355.81 393.26 363.14 393.26 363.12 410.23" style="fill: rgb(255, 181, 115); transform-origin: 359.47px 401.745px;" id="elyolo7kczzhp" class="animable"></polygon><polygon points="421.98 396.22 414.97 398.34 407.25 382.95 414.26 380.83 421.98 396.22" style="fill: rgb(255, 181, 115); transform-origin: 414.615px 389.585px;" id="elavwzcjtg1p" class="animable"></polygon><path d="M412.26,399.61a2.21,2.21,0,0,1-1.45.05,1,1,0,0,1-.57-.79.58.58,0,0,1,.17-.56c.66-.63,3.29.09,3.59.17a.19.19,0,0,1,.12.15.19.19,0,0,1-.09.17A8.56,8.56,0,0,1,412.26,399.61Zm-1.42-1.15a.42.42,0,0,0-.21.11.21.21,0,0,0-.05.22.68.68,0,0,0,.38.55,3.47,3.47,0,0,0,2.52-.63A6.8,6.8,0,0,0,410.84,398.46Z" style="fill: rgb(74, 139, 87); transform-origin: 412.172px 398.906px;" id="elr63leuhqz3a" class="animable"></path><path d="M414,398.82h-.09c-.82-.18-2.62-1.31-2.68-2.15a.6.6,0,0,1,.42-.6.88.88,0,0,1,.76,0c1,.42,1.68,2.42,1.71,2.51a.2.2,0,0,1,0,.18Zm-2.15-2.45a.13.13,0,0,0-.08,0c-.2.09-.2.19-.2.24,0,.49,1.23,1.4,2.09,1.74-.23-.58-.76-1.71-1.39-2A.61.61,0,0,0,411.84,396.37Z" style="fill: rgb(74, 139, 87); transform-origin: 412.685px 397.402px;" id="el8zxvgce6llr" class="animable"></path><path d="M414.26,397.67l7.88-2.38a.61.61,0,0,1,.72.3l3,5.9a1.14,1.14,0,0,1-.7,1.58c-2.76.78-4.14,1-7.61,2.07-2.13.64-9,4.1-11.9,5s-4.08-1.94-2.94-2.58c5.09-2.83,9.2-7,10.53-9.1A1.86,1.86,0,0,1,414.26,397.67Z" style="fill: rgb(38, 50, 56); transform-origin: 414.125px 402.789px;" id="elqi6nm06ccg8" class="animable"></path><path d="M352.78,410.66a2.66,2.66,0,0,1-1.76-.45.91.91,0,0,1-.29-.84.55.55,0,0,1,.31-.46c.91-.5,3.79,1,4.11,1.17a.16.16,0,0,1,.09.18.18.18,0,0,1-.15.14A12,12,0,0,1,352.78,410.66Zm-1.26-1.51a.75.75,0,0,0-.33.06.26.26,0,0,0-.12.19.66.66,0,0,0,.19.56c.43.4,1.64.46,3.26.19A9.22,9.22,0,0,0,351.52,409.15Z" style="fill: rgb(74, 139, 87); transform-origin: 352.98px 409.741px;" id="elx4id7gn25b" class="animable"></path><path d="M355.06,410.41l-.07,0c-.87-.4-2.55-2-2.38-2.81,0-.19.19-.44.67-.48a1.19,1.19,0,0,1,1,.29c.89.77,1,2.74,1,2.83a.18.18,0,0,1-.08.15A.21.21,0,0,1,355.06,410.41Zm-1.66-3h-.1c-.32,0-.34.16-.35.2-.1.49,1,1.74,1.91,2.28a3.9,3.9,0,0,0-.87-2.26A.87.87,0,0,0,353.4,407.44Z" style="fill: rgb(74, 139, 87); transform-origin: 353.939px 408.758px;" id="elnq8c95d6ppo" class="animable"></path><path d="M355.88,409.38h8a.6.6,0,0,1,.6.5l1.16,6.52a1.11,1.11,0,0,1-1.11,1.3c-2.88-.05-7-.22-10.67-.22-4.24,0-7.92.23-12.89.23-3,0-3.71-3-2.44-3.31,5.79-1.26,10.47-1.39,15.56-4.45A3.54,3.54,0,0,1,355.88,409.38Z" style="fill: rgb(38, 50, 56); transform-origin: 351.793px 413.545px;" id="elvg1w2q5ibk8" class="animable"></path><path d="M381.94,142.92c-1.29,5.36-2.1,12,1.49,15.58,0,0-2.39,5.44-12.35,5.44-9.1,0-4.31-5.44-4.31-5.44,6-1.42,6.05-8.82,5.2-13Z" style="fill: rgb(255, 181, 115); transform-origin: 374.47px 153.43px;" id="eleh3hwzou3tq" class="animable"></path><g id="elx4i7zghzto"><polygon points="355.81 393.27 355.8 402.01 363.13 402.01 363.14 393.27 355.81 393.27" style="opacity: 0.2; transform-origin: 359.47px 397.64px;" class="animable"></polygon></g><g id="elqyt4wda0yeo"><polygon points="414.26 380.83 407.25 382.96 411.23 390.89 418.25 388.77 414.26 380.83" style="opacity: 0.2; transform-origin: 412.75px 385.86px;" class="animable"></polygon></g><path d="M398.08,165.2l-9.4,5.4s9.86,23,8.89,26.72c-1.33,5-2,15.21-4.05,21.84.81.91,3.55,2.54,4.65,2.5,4-8,10.52-21.65,10.14-26.28C407.45,184.8,398.08,165.2,398.08,165.2Z" style="fill: rgb(255, 181, 115); transform-origin: 398.503px 193.43px;" id="el2lsrd3huw6s" class="animable"></path><path d="M393.52,219.16l-6.44,2.66,6.46,5.37s5.56-2.51,4.54-7.23Z" style="fill: rgb(255, 181, 115); transform-origin: 392.642px 223.175px;" id="el6u64k29gf9e" class="animable"></path><polygon points="383.48 227.58 389.57 232.15 393.54 227.19 387.08 221.82 383.48 227.58" style="fill: rgb(255, 181, 115); transform-origin: 388.51px 226.985px;" id="el5aefx5etc7i" class="animable"></polygon><path d="M396.48,160.16c6.82,1.39,12.36,25.75,12.36,25.75l-15.36,7.39s-5.26-11.74-7.58-20.36C383.48,163.9,389.16,158.67,396.48,160.16Z" style="fill: rgb(74, 139, 87); transform-origin: 397.087px 176.604px;" id="elbhwn9u6o1yo" class="animable"></path><g id="el8pqj207fu5a"><path d="M391,168.54c-2.86-3-1.56,8.94-.84,16.88.61,1.58,1.2,3,1.71,4.21C396,183.65,395,172.74,391,168.54Z" style="opacity: 0.2; transform-origin: 391.878px 178.848px;" class="animable"></path></g><path d="M367,160.72c0-2.6-.38-3.83.33-4.79s14.79-2.1,17.22-1c.83.37,1.31,4.11.27,5.78C383.3,163.13,367,160.72,367,160.72Z" style="fill: rgb(74, 139, 87); transform-origin: 376.156px 158.134px;" id="elop6wb513r3e" class="animable"></path><g id="elqn5w2ncobaq"><path d="M367,160.72c0-2.6-.38-3.83.33-4.79s14.79-2.1,17.22-1c.83.37,1.31,4.11.27,5.78C383.3,163.13,367,160.72,367,160.72Z" style="opacity: 0.2; transform-origin: 376.156px 158.134px;" class="animable"></path></g><path d="M355.41,160.54s-9.62,22.12-3.22,63.32h39.19c.53-6-2-35.36,5.1-63.7a100.48,100.48,0,0,0-13.05-1.66,144.58,144.58,0,0,0-16.66,0A74.87,74.87,0,0,0,355.41,160.54Z" style="fill: rgb(74, 139, 87); transform-origin: 373.237px 191.06px;" id="el3dss8vb6yem" class="animable"></path><path d="M361,170.82l-9.71-3.91s-13.12,22.28-15.86,24.15c-6.35-3.48-8.48-2.07-13.42-5.72-1.25.13-3.2,1.87-3.86,2.76,4,7.7,17.29,17.23,23.86,11.42C350.14,192.33,361,170.82,361,170.82Z" style="fill: rgb(255, 181, 115); transform-origin: 339.575px 184.11px;" id="elz8mangsi04" class="animable"></path><g id="elv0wz9yh10zf"><path d="M362.22,168.18c-1.46-3.76-4.52-5.33-7.83-4.78-1.46,4.61-4,14.74-4.36,30l3.8.86S364.73,174.61,362.22,168.18Z" style="opacity: 0.2; transform-origin: 356.313px 178.777px;" class="animable"></path></g><path d="M363.89,165.55c2.18,6.56-11.18,25.86-11.18,25.86l-14.3-8a94.2,94.2,0,0,1,9.22-17.15C353.16,158.57,361.5,158.36,363.89,165.55Z" style="fill: rgb(74, 139, 87); transform-origin: 351.27px 175.865px;" id="eleb9tubo1qtu" class="animable"></path><path d="M322.25,185.55l-6.53-3.77-3.82,7.6a25.71,25.71,0,0,0,8.18,1.29Z" style="fill: rgb(255, 181, 115); transform-origin: 317.075px 186.225px;" id="el9jk66rbwhdu" class="animable"></path><polygon points="312.5 181.78 307.83 186.22 311.9 189.38 315.72 181.78 312.5 181.78" style="fill: rgb(255, 181, 115); transform-origin: 311.775px 185.58px;" id="elkajjzxouet" class="animable"></polygon><path d="M365.7,135.21c-.06.59-.42,1-.8,1s-.65-.52-.59-1.11.42-1,.81-1S365.76,134.62,365.7,135.21Z" style="fill: rgb(38, 50, 56); transform-origin: 365.005px 135.155px;" id="el4upxs5t9f9s" class="animable"></path><path d="M366.22,135.26a22.21,22.21,0,0,1-3.32,4.88,3.3,3.3,0,0,0,2.76.69Z" style="fill: rgb(237, 137, 62); transform-origin: 364.56px 138.078px;" id="eleabykymdcq4" class="animable"></path><path d="M365,133.17l-.15-.06a.34.34,0,0,1-.08-.48A3.67,3.67,0,0,1,367.6,131a.34.34,0,0,1,.33.35.37.37,0,0,1-.36.35h0a2.88,2.88,0,0,0-2.19,1.32A.37.37,0,0,1,365,133.17Z" style="fill: rgb(38, 50, 56); transform-origin: 366.317px 132.089px;" id="elz8fn96hasgq" class="animable"></path><path d="M385.61,134.7c-1.19,7.22-1.51,11.49-5.54,15a9.39,9.39,0,0,1-15.63-5.89c-.89-6.6,1.19-17.29,8.56-19.77A9.5,9.5,0,0,1,385.61,134.7Z" style="fill: rgb(255, 181, 115); transform-origin: 375.009px 137.794px;" id="ele51fvhs4ld" class="animable"></path><path d="M370.56,137.81c-1.5-4.75-3.45-12.09,1.88-14.81s9.53,1.06,15.34,4.56c6.55,3.94,2.55,16.44-5.35,19.38C375.8,149.41,369.33,144.45,370.56,137.81Z" style="fill: rgb(38, 50, 56); transform-origin: 380.002px 134.828px;" id="elic42j0jm1up" class="animable"></path><path d="M371.14,129c-4.7,1.27-7.94-1.75-5.62-5.23,2.94-4.43,14.5-3.27,18.83,1.52S374.4,132.37,371.14,129Z" style="fill: rgb(38, 50, 56); transform-origin: 374.956px 125.801px;" id="els4bid1mc7pi" class="animable"></path><path d="M372.93,125.5c-5.74-1.06-8.09-5.74-3.28-8.64,4.54-2.73,17.3,2,19.43,9.54S374.67,130.85,372.93,125.5Z" style="fill: rgb(38, 50, 56); transform-origin: 378.165px 123.488px;" id="elveo798ncgk" class="animable"></path><path d="M388.23,129.09c.87-.7,4.33-1.7,4.72,2.17A7.45,7.45,0,0,0,388.23,129.09Z" style="fill: rgb(38, 50, 56); transform-origin: 390.59px 129.846px;" id="elogg3462hvto" class="animable"></path><path d="M390.71,124.27c.69.88,1.67,4.34-2.21,4.71A7.5,7.5,0,0,0,390.71,124.27Z" style="fill: rgb(38, 50, 56); transform-origin: 389.926px 126.625px;" id="elryixlwlrk19" class="animable"></path><path d="M374.69,137.48a6.46,6.46,0,0,1-3.07,3.64c-1.92,1-3.25-.58-3-2.62.21-1.83,1.46-4.57,3.53-4.73S375.32,135.57,374.69,137.48Z" style="fill: rgb(255, 181, 115); transform-origin: 371.728px 137.595px;" id="el2fsb7rdcwdy" class="animable"></path><path d="M366.09,223.86s5.85,56,9.49,77c4,23,32,89.4,32,89.4l12.85-3.88s-20-61.05-21.89-83.79c-2-24.69-7.12-78.7-7.12-78.7Z" style="fill: rgb(38, 50, 56); transform-origin: 393.26px 307.06px;" id="elul9zkv1n02" class="animable"></path><g id="eljm95ek46h1"><path d="M375.1,243.44c-.58-.88-1.13-1.18-1.66-1l-.1,0a1.32,1.32,0,0,0-.34.2,2.69,2.69,0,0,0-.3.29c-.06.06-.11.13-.17.2s-.15.21-.23.33a8.47,8.47,0,0,0-.49.91c-.08.19-.17.39-.25.59s-.2.51-.3.79-.26.76-.38,1.17c0,.11-.07.21-.1.32s-.13.46-.2.69l-.15.6c-.11.4-.21.8-.31,1.22s-.2.91-.3,1.38c0,.16-.07.33-.11.49-.12.6-.24,1.22-.36,1.84h0c1.61,13.94,3.54,29.92,5.22,41.07.12-.36.24-.74.36-1.15a54.73,54.73,0,0,0,1.25-5.64C378.67,273.37,378.86,249.17,375.1,243.44Z" style="opacity: 0.2; transform-origin: 373.673px 268.46px;" class="animable"></path></g><path d="M352.19,223.86s-3.42,54.78-3.61,77.13c-.2,23.24,4.57,99.33,4.57,99.33h12.41s3.75-74.73,5.31-97.56c1.69-24.88,7.08-78.9,7.08-78.9Z" style="fill: rgb(38, 50, 56); transform-origin: 363.262px 312.09px;" id="elmcpn8bgkvc8" class="animable"></path><path d="M366.55,396.52c.05,0-.18,4.05-.18,4.05H352.06l-.4-4.55Z" style="fill: rgb(74, 139, 87); transform-origin: 359.109px 398.295px;" id="elazzlhz8vacs" class="animable"></path><path d="M419.41,381.82c.32.63,1.68,4.58,1.68,4.58L407,390.67l-2.31-3.8Z" style="fill: rgb(74, 139, 87); transform-origin: 412.89px 386.245px;" id="eljcgdaphaxng" class="animable"></path></g><defs>     <filter id="active" height="200%">         <feMorphology in="SourceAlpha" result="DILATED" operator="dilate" radius="2"></feMorphology>                <feFlood flood-color="#32DFEC" flood-opacity="1" result="PINK"></feFlood>        <feComposite in="PINK" in2="DILATED" operator="in" result="OUTLINE"></feComposite>        <feMerge>            <feMergeNode in="OUTLINE"></feMergeNode>            <feMergeNode in="SourceGraphic"></feMergeNode>        </feMerge>    </filter>    <filter id="hover" height="200%">        <feMorphology in="SourceAlpha" result="DILATED" operator="dilate" radius="2"></feMorphology>                <feFlood flood-color="#ff0000" flood-opacity="0.5" result="PINK"></feFlood>        <feComposite in="PINK" in2="DILATED" operator="in" result="OUTLINE"></feComposite>        <feMerge>            <feMergeNode in="OUTLINE"></feMergeNode>            <feMergeNode in="SourceGraphic"></feMergeNode>        </feMerge>            <feColorMatrix type="matrix" values="0   0   0   0   0                0   1   0   0   0                0   0   0   0   0                0   0   0   1   0 "></feColorMatrix>    </filter></defs></svg>